<svg width="24" height="24" viewBox="0 0 24 24" fill="none" xmlns="http://www.w3.org/2000/svg">
<g clip-path="url(#clip0_127_54)">
<path d="M23.9999 11.9999C23.9999 18.6274 18.6274 24 12 24C5.37255 24 0 18.6274 0 11.9999C0 5.37256 5.37255 7.62939e-06 12 7.62939e-06C18.6273 7.62939e-06 23.9999 5.37256 23.9999 11.9999Z" fill="#7536C6"/>
<path d="M16.0736 9.15438C15.7784 8.98238 15.3952 8.98238 15.0704 9.15438L12.7672 10.4776L11.2032 11.34L8.90002 12.6624C8.60482 12.8352 8.22162 12.8352 7.89682 12.6624L6.06643 11.6272C5.77124 11.4552 5.56484 11.1392 5.56484 10.7936V8.75198C5.56484 8.40718 5.74164 8.09118 6.06643 7.91838L7.86642 6.91199C8.16242 6.73919 8.54642 6.73919 8.87122 6.91199L10.6712 7.91838C10.9672 8.09118 11.1736 8.40718 11.1736 8.75198V10.0752L12.7376 9.18318V7.86078C12.7393 7.68903 12.6933 7.52016 12.6048 7.37299C12.5162 7.22581 12.3886 7.1061 12.236 7.02719L8.90002 5.1296C8.60482 4.9568 8.22162 4.9568 7.89682 5.1296L4.50164 7.02719C4.34908 7.1061 4.22141 7.22581 4.13285 7.37299C4.04429 7.52016 3.99832 7.68903 4.00005 7.86078V11.6848C4.00005 12.0304 4.17685 12.3464 4.50164 12.5192L7.89682 14.4167C8.19202 14.5887 8.57602 14.5887 8.90002 14.4167L11.2032 13.1224L12.7672 12.2312L15.0704 10.9376C15.3656 10.7648 15.7488 10.7648 16.0736 10.9376L17.8744 11.944C18.1704 12.116 18.376 12.432 18.376 12.7776V14.8191C18.376 15.1639 18.2 15.4799 17.8744 15.6527L16.0744 16.6879C15.7784 16.8607 15.3944 16.8607 15.0704 16.6879L13.2696 15.6815C12.9736 15.5087 12.7672 15.1927 12.7672 14.8479V13.5247L11.2032 14.4167V15.7391C11.2032 16.0839 11.38 16.4007 11.7048 16.5727L15.1 18.4703C15.3952 18.6431 15.7784 18.6431 16.1032 18.4703L19.4984 16.5727C19.7936 16.4007 20 16.0847 20 15.7391V11.9152C20.0017 11.7434 19.9557 11.5745 19.8671 11.4274C19.7786 11.2802 19.6509 11.1605 19.4984 11.0816L16.0744 9.15438H16.0736Z" fill="#7536C6"/>
<path d="M16.0736 9.15438C15.7784 8.98238 15.3952 8.98238 15.0704 9.15438L12.7672 10.4776L11.2032 11.34L8.90002 12.6624C8.60482 12.8352 8.22162 12.8352 7.89682 12.6624L6.06643 11.6272C5.77124 11.4552 5.56484 11.1392 5.56484 10.7936V8.75198C5.56484 8.40718 5.74164 8.09118 6.06643 7.91838L7.86642 6.91199C8.16242 6.73919 8.54642 6.73919 8.87122 6.91199L10.6712 7.91838C10.9672 8.09118 11.1736 8.40718 11.1736 8.75198V10.0752L12.7376 9.18318V7.86078C12.7393 7.68903 12.6933 7.52016 12.6048 7.37299C12.5162 7.22581 12.3886 7.1061 12.236 7.02719L8.90002 5.1296C8.60482 4.9568 8.22162 4.9568 7.89682 5.1296L4.50164 7.02719C4.34908 7.1061 4.22141 7.22581 4.13285 7.37299C4.04429 7.52016 3.99832 7.68903 4.00005 7.86078V11.6848C4.00005 12.0304 4.17685 12.3464 4.50164 12.5192L7.89682 14.4167C8.19202 14.5887 8.57602 14.5887 8.90002 14.4167L11.2032 13.1224L12.7672 12.2312L15.0704 10.9376C15.3656 10.7648 15.7488 10.7648 16.0736 10.9376L17.8744 11.944C18.1704 12.116 18.376 12.432 18.376 12.7776V14.8191C18.376 15.1639 18.2 15.4799 17.8744 15.6527L16.0744 16.6879C15.7784 16.8607 15.3944 16.8607 15.0704 16.6879L13.2696 15.6815C12.9736 15.5087 12.7672 15.1927 12.7672 14.8479V13.5247L11.2032 14.4167V15.7391C11.2032 16.0839 11.38 16.4007 11.7048 16.5727L15.1 18.4703C15.3952 18.6431 15.7784 18.6431 16.1032 18.4703L19.4984 16.5727C19.7936 16.4007 20 16.0847 20 15.7391V11.9152C20.0017 11.7434 19.9557 11.5745 19.8671 11.4274C19.7786 11.2802 19.6509 11.1605 19.4984 11.0816L16.0744 9.15438H16.0736Z" fill="white"/>
</g>
<defs>
<clipPath id="clip0_127_54">
<rect width="24" height="24" rx="12" fill="white"/>
</clipPath>
</defs>
</svg>
